# xmcd
#
# Track frame offsets:
#	150
#	16982
#	20977
#	24027
#	27132
#	31455
#	33105
#	39345
#	41827
#	48502
#	58412
#	72755
#	78977
#	81610
#	84547
#	86770
#	92045
#	96422
#	98282
#	111797
#	115330
#	122167
#	125547
#	128672
#	130642
#	135710
#	137027
#	139982
#	146795
#	157540
#	160935
#	179327
#	180727
#	183945
#	186485
#	190910
#
# Disc length: 2755 seconds
#
# Revision: 1
# Processed by: cddbd v1.5.1PL0 Copyright (c) Steve Scherf et al.
# Submitted via: CDex 1.50Beta5
#
DISCID=f20ac124
DTITLE=伊波智恵子他 - 沖縄のわらべうた
DYEAR=1900
DGENRE=
TTITLE0=一二三四
TTITLE1=花ぬ風車
TTITLE2=石んけーじ
TTITLE3=ジンジン
TTITLE4=いったーあんまーまーかいが
TTITLE5=大雨ふらばん
TTITLE6=赤田首里殿内
TTITLE7=まいまいぬりぬり
TTITLE8=てぃんさぐの花
TTITLE9=よいよいよい
TTITLE10=ウーマクカマデー
TTITLE11=小禄豊見城
TTITLE12=三良まーらー
TTITLE13=てぃーちぇー手登根
TTITLE14=なんらーもーちゃが
TTITLE15=ホィホィホィ
TTITLE16=山原船
TTITLE17=那覇ぬまーいや
TTITLE18=正月美ら着物
TTITLE19=あっとーめー
TTITLE20=てぃーちたちゆみば
TTITLE21=花ぬ風車
TTITLE22=アイコーアイコー
TTITLE23=いゃーくわてぃーたーみーゆー
TTITLE24=雨どーい
TTITLE25=ブトゥブトゥ
TTITLE26=いい正月や
TTITLE27=大村御殿(耳切坊主)
TTITLE28=大柴ほろほろ
TTITLE29=伊江ハッチャー
TTITLE30=永良部子守歌
TTITLE31=ぬーぬ上ねー
TTITLE32=くーだーかー
TTITLE33=からぼとぅ
TTITLE34=トゥックイ小
TTITLE35=ちんぬくじゅうしい
EXTD=
EXTT0=
EXTT1=
EXTT2=
EXTT3=
EXTT4=
EXTT5=
EXTT6=
EXTT7=
EXTT8=
EXTT9=
EXTT10=
EXTT11=
EXTT12=
EXTT13=
EXTT14=
EXTT15=
EXTT16=
EXTT17=
EXTT18=
EXTT19=
EXTT20=
EXTT21=
EXTT22=
EXTT23=
EXTT24=
EXTT25=
EXTT26=
EXTT27=
EXTT28=
EXTT29=
EXTT30=
EXTT31=
EXTT32=
EXTT33=
EXTT34=
EXTT35=
PLAYORDER=
